<mxfile host="app.diagrams.net" modified="2021-04-23T13:26:16.537Z" agent="5.0 (Macintosh; Intel Mac OS X 10_15_7) AppleWebKit/537.36 (KHTML, like Gecko) Chrome/69.0.3497.100 Safari/537.36" etag="Hz_goLmiPaMWWrv1920j" version="13.9.9" type="github">
  <diagram id="C5RBs43oDa-KdzZeNtuy" name="Page-1">
    <mxGraphModel dx="1776" dy="584" grid="1" gridSize="10" guides="1" tooltips="1" connect="1" arrows="1" fold="1" page="1" pageScale="1" pageWidth="827" pageHeight="1169" math="0" shadow="0">
      <root>
        <mxCell id="WIyWlLk6GJQsqaUBKTNV-0" />
        <mxCell id="WIyWlLk6GJQsqaUBKTNV-1" parent="WIyWlLk6GJQsqaUBKTNV-0" />
        <mxCell id="WIyWlLk6GJQsqaUBKTNV-2" value="" style="rounded=0;html=1;jettySize=auto;orthogonalLoop=1;fontSize=11;endArrow=block;endFill=0;endSize=8;strokeWidth=1;shadow=0;labelBackgroundColor=none;edgeStyle=orthogonalEdgeStyle;" parent="WIyWlLk6GJQsqaUBKTNV-1" source="WIyWlLk6GJQsqaUBKTNV-3" target="WIyWlLk6GJQsqaUBKTNV-6" edge="1">
          <mxGeometry relative="1" as="geometry" />
        </mxCell>
        <mxCell id="WIyWlLk6GJQsqaUBKTNV-3" value="Client Request" style="rounded=1;whiteSpace=wrap;html=1;fontSize=12;glass=0;strokeWidth=1;shadow=0;" parent="WIyWlLk6GJQsqaUBKTNV-1" vertex="1">
          <mxGeometry x="240" y="40" width="120" height="40" as="geometry" />
        </mxCell>
        <mxCell id="Vs3bbwnLYGWWkS4Y2I-G-81" value="Y" style="edgeStyle=orthogonalEdgeStyle;rounded=0;orthogonalLoop=1;jettySize=auto;html=1;" edge="1" parent="WIyWlLk6GJQsqaUBKTNV-1" source="WIyWlLk6GJQsqaUBKTNV-6" target="Vs3bbwnLYGWWkS4Y2I-G-80">
          <mxGeometry relative="1" as="geometry" />
        </mxCell>
        <mxCell id="Vs3bbwnLYGWWkS4Y2I-G-82" value="N" style="edgeStyle=orthogonalEdgeStyle;rounded=0;orthogonalLoop=1;jettySize=auto;html=1;" edge="1" parent="WIyWlLk6GJQsqaUBKTNV-1" source="WIyWlLk6GJQsqaUBKTNV-6" target="Vs3bbwnLYGWWkS4Y2I-G-5">
          <mxGeometry relative="1" as="geometry" />
        </mxCell>
        <mxCell id="WIyWlLk6GJQsqaUBKTNV-6" value="fcPercent &amp;gt;= 100" style="rhombus;whiteSpace=wrap;html=1;shadow=0;fontFamily=Helvetica;fontSize=12;align=center;strokeWidth=1;spacing=6;spacingTop=-4;" parent="WIyWlLk6GJQsqaUBKTNV-1" vertex="1">
          <mxGeometry x="240" y="120" width="120" height="80" as="geometry" />
        </mxCell>
        <mxCell id="Vs3bbwnLYGWWkS4Y2I-G-29" value="" style="edgeStyle=orthogonalEdgeStyle;rounded=0;orthogonalLoop=1;jettySize=auto;html=1;" edge="1" parent="WIyWlLk6GJQsqaUBKTNV-1" source="WIyWlLk6GJQsqaUBKTNV-11" target="Vs3bbwnLYGWWkS4Y2I-G-28">
          <mxGeometry relative="1" as="geometry" />
        </mxCell>
        <mxCell id="WIyWlLk6GJQsqaUBKTNV-11" value="API Request" style="rounded=0;whiteSpace=wrap;html=1;fontSize=12;glass=0;strokeWidth=1;shadow=0;" parent="WIyWlLk6GJQsqaUBKTNV-1" vertex="1">
          <mxGeometry x="240" y="400" width="120" height="40" as="geometry" />
        </mxCell>
        <mxCell id="Vs3bbwnLYGWWkS4Y2I-G-83" value="" style="edgeStyle=orthogonalEdgeStyle;rounded=0;orthogonalLoop=1;jettySize=auto;html=1;" edge="1" parent="WIyWlLk6GJQsqaUBKTNV-1" source="Vs3bbwnLYGWWkS4Y2I-G-5" target="Vs3bbwnLYGWWkS4Y2I-G-9">
          <mxGeometry relative="1" as="geometry" />
        </mxCell>
        <mxCell id="Vs3bbwnLYGWWkS4Y2I-G-89" value="" style="edgeStyle=orthogonalEdgeStyle;rounded=0;orthogonalLoop=1;jettySize=auto;html=1;entryX=0;entryY=0.5;entryDx=0;entryDy=0;exitX=0;exitY=0.5;exitDx=0;exitDy=0;" edge="1" parent="WIyWlLk6GJQsqaUBKTNV-1" source="Vs3bbwnLYGWWkS4Y2I-G-111" target="Vs3bbwnLYGWWkS4Y2I-G-34">
          <mxGeometry relative="1" as="geometry">
            <mxPoint y="530" as="targetPoint" />
            <Array as="points">
              <mxPoint x="-160" y="420" />
              <mxPoint x="-160" y="1020" />
            </Array>
          </mxGeometry>
        </mxCell>
        <mxCell id="Vs3bbwnLYGWWkS4Y2I-G-5" value="fcCompute" style="rounded=0;whiteSpace=wrap;html=1;fontSize=12;glass=0;strokeWidth=1;shadow=0;" vertex="1" parent="WIyWlLk6GJQsqaUBKTNV-1">
          <mxGeometry x="80" y="140" width="120" height="40" as="geometry" />
        </mxCell>
        <mxCell id="Vs3bbwnLYGWWkS4Y2I-G-84" value="" style="edgeStyle=orthogonalEdgeStyle;rounded=0;orthogonalLoop=1;jettySize=auto;html=1;" edge="1" parent="WIyWlLk6GJQsqaUBKTNV-1" source="Vs3bbwnLYGWWkS4Y2I-G-9" target="Vs3bbwnLYGWWkS4Y2I-G-80">
          <mxGeometry relative="1" as="geometry" />
        </mxCell>
        <mxCell id="Vs3bbwnLYGWWkS4Y2I-G-85" value="Y" style="edgeLabel;html=1;align=center;verticalAlign=middle;resizable=0;points=[];" vertex="1" connectable="0" parent="Vs3bbwnLYGWWkS4Y2I-G-84">
          <mxGeometry x="-0.1083" y="1" relative="1" as="geometry">
            <mxPoint as="offset" />
          </mxGeometry>
        </mxCell>
        <mxCell id="Vs3bbwnLYGWWkS4Y2I-G-112" value="" style="edgeStyle=orthogonalEdgeStyle;rounded=0;orthogonalLoop=1;jettySize=auto;html=1;" edge="1" parent="WIyWlLk6GJQsqaUBKTNV-1" source="Vs3bbwnLYGWWkS4Y2I-G-9" target="Vs3bbwnLYGWWkS4Y2I-G-111">
          <mxGeometry relative="1" as="geometry" />
        </mxCell>
        <mxCell id="Vs3bbwnLYGWWkS4Y2I-G-113" value="N" style="edgeLabel;html=1;align=center;verticalAlign=middle;resizable=0;points=[];" vertex="1" connectable="0" parent="Vs3bbwnLYGWWkS4Y2I-G-112">
          <mxGeometry x="-0.1042" y="-1" relative="1" as="geometry">
            <mxPoint as="offset" />
          </mxGeometry>
        </mxCell>
        <mxCell id="Vs3bbwnLYGWWkS4Y2I-G-9" value="allowRequest" style="rhombus;whiteSpace=wrap;html=1;" vertex="1" parent="WIyWlLk6GJQsqaUBKTNV-1">
          <mxGeometry x="80" y="240" width="120" height="80" as="geometry" />
        </mxCell>
        <mxCell id="Vs3bbwnLYGWWkS4Y2I-G-31" value="Y" style="edgeStyle=orthogonalEdgeStyle;rounded=0;orthogonalLoop=1;jettySize=auto;html=1;" edge="1" parent="WIyWlLk6GJQsqaUBKTNV-1" source="Vs3bbwnLYGWWkS4Y2I-G-28" target="Vs3bbwnLYGWWkS4Y2I-G-30">
          <mxGeometry relative="1" as="geometry" />
        </mxCell>
        <mxCell id="Vs3bbwnLYGWWkS4Y2I-G-67" value="" style="edgeStyle=orthogonalEdgeStyle;rounded=0;orthogonalLoop=1;jettySize=auto;html=1;exitX=0.5;exitY=1;exitDx=0;exitDy=0;entryX=0;entryY=0.5;entryDx=0;entryDy=0;" edge="1" parent="WIyWlLk6GJQsqaUBKTNV-1" source="Vs3bbwnLYGWWkS4Y2I-G-90" target="Vs3bbwnLYGWWkS4Y2I-G-140">
          <mxGeometry relative="1" as="geometry">
            <Array as="points">
              <mxPoint x="460" y="640" />
            </Array>
          </mxGeometry>
        </mxCell>
        <mxCell id="Vs3bbwnLYGWWkS4Y2I-G-141" value="N" style="edgeLabel;html=1;align=center;verticalAlign=middle;resizable=0;points=[];" vertex="1" connectable="0" parent="Vs3bbwnLYGWWkS4Y2I-G-67">
          <mxGeometry x="-0.56" relative="1" as="geometry">
            <mxPoint as="offset" />
          </mxGeometry>
        </mxCell>
        <mxCell id="Vs3bbwnLYGWWkS4Y2I-G-91" value="" style="edgeStyle=orthogonalEdgeStyle;rounded=0;orthogonalLoop=1;jettySize=auto;html=1;" edge="1" parent="WIyWlLk6GJQsqaUBKTNV-1" source="Vs3bbwnLYGWWkS4Y2I-G-28" target="Vs3bbwnLYGWWkS4Y2I-G-90">
          <mxGeometry relative="1" as="geometry" />
        </mxCell>
        <mxCell id="Vs3bbwnLYGWWkS4Y2I-G-92" value="N" style="edgeLabel;html=1;align=center;verticalAlign=middle;resizable=0;points=[];" vertex="1" connectable="0" parent="Vs3bbwnLYGWWkS4Y2I-G-91">
          <mxGeometry x="-0.4167" y="1" relative="1" as="geometry">
            <mxPoint as="offset" />
          </mxGeometry>
        </mxCell>
        <mxCell id="Vs3bbwnLYGWWkS4Y2I-G-28" value="isTimeout" style="rhombus;whiteSpace=wrap;html=1;" vertex="1" parent="WIyWlLk6GJQsqaUBKTNV-1">
          <mxGeometry x="240" y="480" width="120" height="80" as="geometry" />
        </mxCell>
        <mxCell id="Vs3bbwnLYGWWkS4Y2I-G-139" value="" style="edgeStyle=orthogonalEdgeStyle;rounded=0;jumpStyle=arc;orthogonalLoop=1;jettySize=auto;html=1;" edge="1" parent="WIyWlLk6GJQsqaUBKTNV-1" source="Vs3bbwnLYGWWkS4Y2I-G-30" target="Vs3bbwnLYGWWkS4Y2I-G-130">
          <mxGeometry relative="1" as="geometry" />
        </mxCell>
        <mxCell id="Vs3bbwnLYGWWkS4Y2I-G-30" value="TTScore + 1" style="rounded=0;whiteSpace=wrap;html=1;fontSize=12;glass=0;strokeWidth=1;shadow=0;" vertex="1" parent="WIyWlLk6GJQsqaUBKTNV-1">
          <mxGeometry x="80" y="500" width="120" height="40" as="geometry" />
        </mxCell>
        <mxCell id="Vs3bbwnLYGWWkS4Y2I-G-34" value="End" style="rounded=1;whiteSpace=wrap;html=1;fontSize=12;glass=0;strokeWidth=1;shadow=0;" vertex="1" parent="WIyWlLk6GJQsqaUBKTNV-1">
          <mxGeometry x="240" y="1000" width="120" height="40" as="geometry" />
        </mxCell>
        <mxCell id="Vs3bbwnLYGWWkS4Y2I-G-42" value="" style="edgeStyle=orthogonalEdgeStyle;rounded=0;orthogonalLoop=1;jettySize=auto;html=1;" edge="1" parent="WIyWlLk6GJQsqaUBKTNV-1" source="Vs3bbwnLYGWWkS4Y2I-G-39" target="Vs3bbwnLYGWWkS4Y2I-G-41">
          <mxGeometry relative="1" as="geometry" />
        </mxCell>
        <mxCell id="Vs3bbwnLYGWWkS4Y2I-G-46" value="Y" style="edgeLabel;html=1;align=center;verticalAlign=middle;resizable=0;points=[];" vertex="1" connectable="0" parent="Vs3bbwnLYGWWkS4Y2I-G-42">
          <mxGeometry x="-0.4167" relative="1" as="geometry">
            <mxPoint as="offset" />
          </mxGeometry>
        </mxCell>
        <mxCell id="Vs3bbwnLYGWWkS4Y2I-G-44" style="edgeStyle=orthogonalEdgeStyle;rounded=0;orthogonalLoop=1;jettySize=auto;html=1;exitX=1;exitY=0.5;exitDx=0;exitDy=0;" edge="1" parent="WIyWlLk6GJQsqaUBKTNV-1" source="Vs3bbwnLYGWWkS4Y2I-G-39" target="Vs3bbwnLYGWWkS4Y2I-G-34">
          <mxGeometry relative="1" as="geometry">
            <Array as="points">
              <mxPoint x="300" y="640" />
            </Array>
          </mxGeometry>
        </mxCell>
        <mxCell id="Vs3bbwnLYGWWkS4Y2I-G-125" value="N" style="edgeLabel;html=1;align=center;verticalAlign=middle;resizable=0;points=[];" vertex="1" connectable="0" parent="Vs3bbwnLYGWWkS4Y2I-G-44">
          <mxGeometry x="-0.8304" relative="1" as="geometry">
            <mxPoint as="offset" />
          </mxGeometry>
        </mxCell>
        <mxCell id="Vs3bbwnLYGWWkS4Y2I-G-39" value="TTScore &amp;gt; 100" style="rhombus;whiteSpace=wrap;html=1;" vertex="1" parent="WIyWlLk6GJQsqaUBKTNV-1">
          <mxGeometry x="80" y="600" width="120" height="80" as="geometry" />
        </mxCell>
        <mxCell id="Vs3bbwnLYGWWkS4Y2I-G-43" value="" style="edgeStyle=orthogonalEdgeStyle;rounded=0;orthogonalLoop=1;jettySize=auto;html=1;exitX=1;exitY=0.5;exitDx=0;exitDy=0;" edge="1" parent="WIyWlLk6GJQsqaUBKTNV-1" source="Vs3bbwnLYGWWkS4Y2I-G-118" target="Vs3bbwnLYGWWkS4Y2I-G-34">
          <mxGeometry relative="1" as="geometry">
            <Array as="points">
              <mxPoint x="300" y="840" />
            </Array>
          </mxGeometry>
        </mxCell>
        <mxCell id="Vs3bbwnLYGWWkS4Y2I-G-122" value="N" style="edgeLabel;html=1;align=center;verticalAlign=middle;resizable=0;points=[];" vertex="1" connectable="0" parent="Vs3bbwnLYGWWkS4Y2I-G-43">
          <mxGeometry x="-0.6693" y="2" relative="1" as="geometry">
            <mxPoint as="offset" />
          </mxGeometry>
        </mxCell>
        <mxCell id="Vs3bbwnLYGWWkS4Y2I-G-120" value="" style="edgeStyle=orthogonalEdgeStyle;rounded=0;jumpStyle=arc;orthogonalLoop=1;jettySize=auto;html=1;" edge="1" parent="WIyWlLk6GJQsqaUBKTNV-1" source="Vs3bbwnLYGWWkS4Y2I-G-41" target="Vs3bbwnLYGWWkS4Y2I-G-118">
          <mxGeometry relative="1" as="geometry" />
        </mxCell>
        <mxCell id="Vs3bbwnLYGWWkS4Y2I-G-41" value="apiFpStatus = open" style="rounded=0;whiteSpace=wrap;html=1;fontSize=12;glass=0;strokeWidth=1;shadow=0;align=center;" vertex="1" parent="WIyWlLk6GJQsqaUBKTNV-1">
          <mxGeometry x="80" y="720" width="120" height="40" as="geometry" />
        </mxCell>
        <mxCell id="Vs3bbwnLYGWWkS4Y2I-G-51" value="" style="edgeStyle=orthogonalEdgeStyle;rounded=0;orthogonalLoop=1;jettySize=auto;html=1;" edge="1" parent="WIyWlLk6GJQsqaUBKTNV-1" source="Vs3bbwnLYGWWkS4Y2I-G-47" target="Vs3bbwnLYGWWkS4Y2I-G-50">
          <mxGeometry relative="1" as="geometry" />
        </mxCell>
        <mxCell id="Vs3bbwnLYGWWkS4Y2I-G-53" value="N" style="edgeLabel;html=1;align=center;verticalAlign=middle;resizable=0;points=[];" vertex="1" connectable="0" parent="Vs3bbwnLYGWWkS4Y2I-G-51">
          <mxGeometry x="0.0133" y="-3" relative="1" as="geometry">
            <mxPoint as="offset" />
          </mxGeometry>
        </mxCell>
        <mxCell id="Vs3bbwnLYGWWkS4Y2I-G-61" value="" style="edgeStyle=orthogonalEdgeStyle;rounded=0;orthogonalLoop=1;jettySize=auto;html=1;" edge="1" parent="WIyWlLk6GJQsqaUBKTNV-1" source="Vs3bbwnLYGWWkS4Y2I-G-47" target="Vs3bbwnLYGWWkS4Y2I-G-60">
          <mxGeometry relative="1" as="geometry" />
        </mxCell>
        <mxCell id="Vs3bbwnLYGWWkS4Y2I-G-62" value="Y" style="edgeLabel;html=1;align=center;verticalAlign=middle;resizable=0;points=[];" vertex="1" connectable="0" parent="Vs3bbwnLYGWWkS4Y2I-G-61">
          <mxGeometry x="-0.2273" relative="1" as="geometry">
            <mxPoint as="offset" />
          </mxGeometry>
        </mxCell>
        <mxCell id="Vs3bbwnLYGWWkS4Y2I-G-47" value="fcPercent &amp;gt;= 100" style="rhombus;whiteSpace=wrap;html=1;" vertex="1" parent="WIyWlLk6GJQsqaUBKTNV-1">
          <mxGeometry x="560" y="800" width="120" height="80" as="geometry" />
        </mxCell>
        <mxCell id="Vs3bbwnLYGWWkS4Y2I-G-72" style="edgeStyle=orthogonalEdgeStyle;rounded=0;orthogonalLoop=1;jettySize=auto;html=1;entryX=1;entryY=0.5;entryDx=0;entryDy=0;" edge="1" parent="WIyWlLk6GJQsqaUBKTNV-1" source="Vs3bbwnLYGWWkS4Y2I-G-50" target="Vs3bbwnLYGWWkS4Y2I-G-34">
          <mxGeometry relative="1" as="geometry">
            <Array as="points">
              <mxPoint x="620" y="1020" />
            </Array>
          </mxGeometry>
        </mxCell>
        <mxCell id="Vs3bbwnLYGWWkS4Y2I-G-50" value="fcPercent * 1.1" style="rounded=0;whiteSpace=wrap;html=1;fontSize=12;glass=0;strokeWidth=1;shadow=0;" vertex="1" parent="WIyWlLk6GJQsqaUBKTNV-1">
          <mxGeometry x="560" y="920" width="120" height="40" as="geometry" />
        </mxCell>
        <mxCell id="Vs3bbwnLYGWWkS4Y2I-G-64" value="" style="edgeStyle=orthogonalEdgeStyle;rounded=0;orthogonalLoop=1;jettySize=auto;html=1;" edge="1" parent="WIyWlLk6GJQsqaUBKTNV-1" source="Vs3bbwnLYGWWkS4Y2I-G-60" target="Vs3bbwnLYGWWkS4Y2I-G-63">
          <mxGeometry relative="1" as="geometry" />
        </mxCell>
        <mxCell id="Vs3bbwnLYGWWkS4Y2I-G-65" value="Y" style="edgeLabel;html=1;align=center;verticalAlign=middle;resizable=0;points=[];" vertex="1" connectable="0" parent="Vs3bbwnLYGWWkS4Y2I-G-64">
          <mxGeometry x="-0.2778" y="1" relative="1" as="geometry">
            <mxPoint as="offset" />
          </mxGeometry>
        </mxCell>
        <mxCell id="Vs3bbwnLYGWWkS4Y2I-G-102" value="" style="edgeStyle=orthogonalEdgeStyle;rounded=0;orthogonalLoop=1;jettySize=auto;html=1;entryX=0.5;entryY=0;entryDx=0;entryDy=0;" edge="1" parent="WIyWlLk6GJQsqaUBKTNV-1" source="Vs3bbwnLYGWWkS4Y2I-G-60" target="Vs3bbwnLYGWWkS4Y2I-G-34">
          <mxGeometry relative="1" as="geometry">
            <Array as="points">
              <mxPoint x="300" y="840" />
            </Array>
          </mxGeometry>
        </mxCell>
        <mxCell id="Vs3bbwnLYGWWkS4Y2I-G-128" value="N" style="edgeLabel;html=1;align=center;verticalAlign=middle;resizable=0;points=[];" vertex="1" connectable="0" parent="Vs3bbwnLYGWWkS4Y2I-G-102">
          <mxGeometry x="-0.8565" relative="1" as="geometry">
            <mxPoint as="offset" />
          </mxGeometry>
        </mxCell>
        <mxCell id="Vs3bbwnLYGWWkS4Y2I-G-60" value="TTScore &amp;gt; 0" style="rhombus;whiteSpace=wrap;html=1;" vertex="1" parent="WIyWlLk6GJQsqaUBKTNV-1">
          <mxGeometry x="400" y="800" width="120" height="80" as="geometry" />
        </mxCell>
        <mxCell id="Vs3bbwnLYGWWkS4Y2I-G-70" style="edgeStyle=orthogonalEdgeStyle;rounded=0;orthogonalLoop=1;jettySize=auto;html=1;entryX=1;entryY=0.5;entryDx=0;entryDy=0;exitX=0.5;exitY=1;exitDx=0;exitDy=0;" edge="1" parent="WIyWlLk6GJQsqaUBKTNV-1" source="Vs3bbwnLYGWWkS4Y2I-G-63" target="Vs3bbwnLYGWWkS4Y2I-G-34">
          <mxGeometry relative="1" as="geometry">
            <Array as="points">
              <mxPoint x="460" y="1020" />
            </Array>
          </mxGeometry>
        </mxCell>
        <mxCell id="Vs3bbwnLYGWWkS4Y2I-G-63" value="TTScore - 0.01" style="rounded=0;whiteSpace=wrap;html=1;fontSize=12;glass=0;strokeWidth=1;shadow=0;" vertex="1" parent="WIyWlLk6GJQsqaUBKTNV-1">
          <mxGeometry x="400" y="920" width="120" height="40" as="geometry" />
        </mxCell>
        <mxCell id="Vs3bbwnLYGWWkS4Y2I-G-86" value="" style="edgeStyle=orthogonalEdgeStyle;rounded=0;orthogonalLoop=1;jettySize=auto;html=1;" edge="1" parent="WIyWlLk6GJQsqaUBKTNV-1" source="Vs3bbwnLYGWWkS4Y2I-G-80" target="WIyWlLk6GJQsqaUBKTNV-11">
          <mxGeometry relative="1" as="geometry" />
        </mxCell>
        <mxCell id="Vs3bbwnLYGWWkS4Y2I-G-87" value="N" style="edgeLabel;html=1;align=center;verticalAlign=middle;resizable=0;points=[];" vertex="1" connectable="0" parent="Vs3bbwnLYGWWkS4Y2I-G-86">
          <mxGeometry x="-0.1458" y="1" relative="1" as="geometry">
            <mxPoint as="offset" />
          </mxGeometry>
        </mxCell>
        <mxCell id="Vs3bbwnLYGWWkS4Y2I-G-104" value="" style="edgeStyle=orthogonalEdgeStyle;rounded=0;orthogonalLoop=1;jettySize=auto;html=1;" edge="1" parent="WIyWlLk6GJQsqaUBKTNV-1" source="Vs3bbwnLYGWWkS4Y2I-G-80" target="Vs3bbwnLYGWWkS4Y2I-G-103">
          <mxGeometry relative="1" as="geometry" />
        </mxCell>
        <mxCell id="Vs3bbwnLYGWWkS4Y2I-G-105" value="Y" style="edgeLabel;html=1;align=center;verticalAlign=middle;resizable=0;points=[];" vertex="1" connectable="0" parent="Vs3bbwnLYGWWkS4Y2I-G-104">
          <mxGeometry x="-0.1667" relative="1" as="geometry">
            <mxPoint as="offset" />
          </mxGeometry>
        </mxCell>
        <mxCell id="Vs3bbwnLYGWWkS4Y2I-G-80" value="apiFpStatus == open" style="rhombus;whiteSpace=wrap;html=1;shadow=0;fontFamily=Helvetica;fontSize=12;align=center;strokeWidth=1;spacing=6;spacingTop=-4;" vertex="1" parent="WIyWlLk6GJQsqaUBKTNV-1">
          <mxGeometry x="240" y="240" width="120" height="80" as="geometry" />
        </mxCell>
        <mxCell id="Vs3bbwnLYGWWkS4Y2I-G-94" value="" style="edgeStyle=orthogonalEdgeStyle;rounded=0;orthogonalLoop=1;jettySize=auto;html=1;" edge="1" parent="WIyWlLk6GJQsqaUBKTNV-1" source="Vs3bbwnLYGWWkS4Y2I-G-90" target="Vs3bbwnLYGWWkS4Y2I-G-93">
          <mxGeometry relative="1" as="geometry" />
        </mxCell>
        <mxCell id="Vs3bbwnLYGWWkS4Y2I-G-95" value="Y" style="edgeLabel;html=1;align=center;verticalAlign=middle;resizable=0;points=[];" vertex="1" connectable="0" parent="Vs3bbwnLYGWWkS4Y2I-G-94">
          <mxGeometry x="-0.5833" relative="1" as="geometry">
            <mxPoint as="offset" />
          </mxGeometry>
        </mxCell>
        <mxCell id="Vs3bbwnLYGWWkS4Y2I-G-90" value="apiFpStatus = open" style="rhombus;whiteSpace=wrap;html=1;" vertex="1" parent="WIyWlLk6GJQsqaUBKTNV-1">
          <mxGeometry x="400" y="480" width="120" height="80" as="geometry" />
        </mxCell>
        <mxCell id="Vs3bbwnLYGWWkS4Y2I-G-98" style="edgeStyle=orthogonalEdgeStyle;rounded=0;orthogonalLoop=1;jettySize=auto;html=1;entryX=0.5;entryY=0;entryDx=0;entryDy=0;" edge="1" parent="WIyWlLk6GJQsqaUBKTNV-1" source="Vs3bbwnLYGWWkS4Y2I-G-93" target="Vs3bbwnLYGWWkS4Y2I-G-140">
          <mxGeometry relative="1" as="geometry">
            <Array as="points" />
          </mxGeometry>
        </mxCell>
        <mxCell id="Vs3bbwnLYGWWkS4Y2I-G-93" value="apiFpStatus = close" style="rounded=0;whiteSpace=wrap;html=1;fontSize=12;glass=0;strokeWidth=1;shadow=0;" vertex="1" parent="WIyWlLk6GJQsqaUBKTNV-1">
          <mxGeometry x="560" y="500" width="120" height="40" as="geometry" />
        </mxCell>
        <mxCell id="Vs3bbwnLYGWWkS4Y2I-G-108" value="" style="edgeStyle=orthogonalEdgeStyle;rounded=0;orthogonalLoop=1;jettySize=auto;html=1;" edge="1" parent="WIyWlLk6GJQsqaUBKTNV-1" source="Vs3bbwnLYGWWkS4Y2I-G-103" target="Vs3bbwnLYGWWkS4Y2I-G-107">
          <mxGeometry relative="1" as="geometry" />
        </mxCell>
        <mxCell id="Vs3bbwnLYGWWkS4Y2I-G-103" value="apFcCompute" style="rounded=0;whiteSpace=wrap;html=1;fontSize=12;glass=0;strokeWidth=1;shadow=0;" vertex="1" parent="WIyWlLk6GJQsqaUBKTNV-1">
          <mxGeometry x="400" y="260" width="120" height="40" as="geometry" />
        </mxCell>
        <mxCell id="Vs3bbwnLYGWWkS4Y2I-G-115" value="" style="edgeStyle=orthogonalEdgeStyle;rounded=0;orthogonalLoop=1;jettySize=auto;html=1;entryX=0.5;entryY=0;entryDx=0;entryDy=0;exitX=0.5;exitY=1;exitDx=0;exitDy=0;jumpStyle=arc;" edge="1" parent="WIyWlLk6GJQsqaUBKTNV-1" source="Vs3bbwnLYGWWkS4Y2I-G-107" target="Vs3bbwnLYGWWkS4Y2I-G-111">
          <mxGeometry relative="1" as="geometry">
            <Array as="points">
              <mxPoint x="620" y="370" />
              <mxPoint x="140" y="370" />
            </Array>
          </mxGeometry>
        </mxCell>
        <mxCell id="Vs3bbwnLYGWWkS4Y2I-G-129" value="N" style="edgeLabel;html=1;align=center;verticalAlign=middle;resizable=0;points=[];" vertex="1" connectable="0" parent="Vs3bbwnLYGWWkS4Y2I-G-115">
          <mxGeometry x="-0.9343" y="-1" relative="1" as="geometry">
            <mxPoint as="offset" />
          </mxGeometry>
        </mxCell>
        <mxCell id="Vs3bbwnLYGWWkS4Y2I-G-116" style="edgeStyle=orthogonalEdgeStyle;rounded=0;jumpStyle=arc;orthogonalLoop=1;jettySize=auto;html=1;entryX=1;entryY=0.5;entryDx=0;entryDy=0;exitX=1;exitY=0.5;exitDx=0;exitDy=0;" edge="1" parent="WIyWlLk6GJQsqaUBKTNV-1" source="Vs3bbwnLYGWWkS4Y2I-G-107" target="WIyWlLk6GJQsqaUBKTNV-11">
          <mxGeometry relative="1" as="geometry">
            <Array as="points">
              <mxPoint x="680" y="420" />
            </Array>
          </mxGeometry>
        </mxCell>
        <mxCell id="Vs3bbwnLYGWWkS4Y2I-G-117" value="Y" style="edgeLabel;html=1;align=center;verticalAlign=middle;resizable=0;points=[];" vertex="1" connectable="0" parent="Vs3bbwnLYGWWkS4Y2I-G-116">
          <mxGeometry x="-0.7572" y="-1" relative="1" as="geometry">
            <mxPoint as="offset" />
          </mxGeometry>
        </mxCell>
        <mxCell id="Vs3bbwnLYGWWkS4Y2I-G-107" value="allowRequest" style="rhombus;whiteSpace=wrap;html=1;" vertex="1" parent="WIyWlLk6GJQsqaUBKTNV-1">
          <mxGeometry x="560" y="240" width="120" height="80" as="geometry" />
        </mxCell>
        <mxCell id="Vs3bbwnLYGWWkS4Y2I-G-111" value="Fast Fail" style="rounded=0;whiteSpace=wrap;html=1;fontSize=12;glass=0;strokeWidth=1;shadow=0;" vertex="1" parent="WIyWlLk6GJQsqaUBKTNV-1">
          <mxGeometry x="80" y="400" width="120" height="40" as="geometry" />
        </mxCell>
        <mxCell id="Vs3bbwnLYGWWkS4Y2I-G-121" value="" style="edgeStyle=orthogonalEdgeStyle;rounded=0;jumpStyle=arc;orthogonalLoop=1;jettySize=auto;html=1;" edge="1" parent="WIyWlLk6GJQsqaUBKTNV-1" source="Vs3bbwnLYGWWkS4Y2I-G-118" target="Vs3bbwnLYGWWkS4Y2I-G-119">
          <mxGeometry relative="1" as="geometry" />
        </mxCell>
        <mxCell id="Vs3bbwnLYGWWkS4Y2I-G-124" value="Y" style="edgeLabel;html=1;align=center;verticalAlign=middle;resizable=0;points=[];" vertex="1" connectable="0" parent="Vs3bbwnLYGWWkS4Y2I-G-121">
          <mxGeometry x="-0.4" y="-2" relative="1" as="geometry">
            <mxPoint as="offset" />
          </mxGeometry>
        </mxCell>
        <mxCell id="Vs3bbwnLYGWWkS4Y2I-G-118" value="TTScore &amp;gt; 120" style="rhombus;whiteSpace=wrap;html=1;" vertex="1" parent="WIyWlLk6GJQsqaUBKTNV-1">
          <mxGeometry x="80" y="800" width="120" height="80" as="geometry" />
        </mxCell>
        <mxCell id="Vs3bbwnLYGWWkS4Y2I-G-123" style="edgeStyle=orthogonalEdgeStyle;rounded=0;jumpStyle=arc;orthogonalLoop=1;jettySize=auto;html=1;entryX=0;entryY=0.5;entryDx=0;entryDy=0;" edge="1" parent="WIyWlLk6GJQsqaUBKTNV-1" source="Vs3bbwnLYGWWkS4Y2I-G-119" target="Vs3bbwnLYGWWkS4Y2I-G-34">
          <mxGeometry relative="1" as="geometry">
            <Array as="points">
              <mxPoint x="140" y="1020" />
            </Array>
          </mxGeometry>
        </mxCell>
        <mxCell id="Vs3bbwnLYGWWkS4Y2I-G-119" value="fcPercent * 0.5" style="rounded=0;whiteSpace=wrap;html=1;fontSize=12;glass=0;strokeWidth=1;shadow=0;align=center;" vertex="1" parent="WIyWlLk6GJQsqaUBKTNV-1">
          <mxGeometry x="80" y="920" width="120" height="40" as="geometry" />
        </mxCell>
        <mxCell id="Vs3bbwnLYGWWkS4Y2I-G-132" value="" style="edgeStyle=orthogonalEdgeStyle;rounded=0;jumpStyle=arc;orthogonalLoop=1;jettySize=auto;html=1;" edge="1" parent="WIyWlLk6GJQsqaUBKTNV-1" source="Vs3bbwnLYGWWkS4Y2I-G-130" target="Vs3bbwnLYGWWkS4Y2I-G-131">
          <mxGeometry relative="1" as="geometry" />
        </mxCell>
        <mxCell id="Vs3bbwnLYGWWkS4Y2I-G-130" value="apiTtScore + 1" style="rounded=0;whiteSpace=wrap;html=1;fontSize=12;glass=0;strokeWidth=1;shadow=0;" vertex="1" parent="WIyWlLk6GJQsqaUBKTNV-1">
          <mxGeometry x="-120" y="500" width="120" height="40" as="geometry" />
        </mxCell>
        <mxCell id="Vs3bbwnLYGWWkS4Y2I-G-133" value="" style="edgeStyle=orthogonalEdgeStyle;rounded=0;jumpStyle=arc;orthogonalLoop=1;jettySize=auto;html=1;" edge="1" parent="WIyWlLk6GJQsqaUBKTNV-1" source="Vs3bbwnLYGWWkS4Y2I-G-131" target="Vs3bbwnLYGWWkS4Y2I-G-39">
          <mxGeometry relative="1" as="geometry" />
        </mxCell>
        <mxCell id="Vs3bbwnLYGWWkS4Y2I-G-134" value="N" style="edgeLabel;html=1;align=center;verticalAlign=middle;resizable=0;points=[];" vertex="1" connectable="0" parent="Vs3bbwnLYGWWkS4Y2I-G-133">
          <mxGeometry x="-0.52" relative="1" as="geometry">
            <mxPoint as="offset" />
          </mxGeometry>
        </mxCell>
        <mxCell id="Vs3bbwnLYGWWkS4Y2I-G-137" value="" style="edgeStyle=orthogonalEdgeStyle;rounded=0;jumpStyle=arc;orthogonalLoop=1;jettySize=auto;html=1;" edge="1" parent="WIyWlLk6GJQsqaUBKTNV-1" source="Vs3bbwnLYGWWkS4Y2I-G-131" target="Vs3bbwnLYGWWkS4Y2I-G-136">
          <mxGeometry relative="1" as="geometry" />
        </mxCell>
        <mxCell id="Vs3bbwnLYGWWkS4Y2I-G-143" value="Y" style="edgeLabel;html=1;align=center;verticalAlign=middle;resizable=0;points=[];" vertex="1" connectable="0" parent="Vs3bbwnLYGWWkS4Y2I-G-137">
          <mxGeometry x="-0.4" relative="1" as="geometry">
            <mxPoint as="offset" />
          </mxGeometry>
        </mxCell>
        <mxCell id="Vs3bbwnLYGWWkS4Y2I-G-131" value="apiTtScore&amp;nbsp;&amp;gt; 30" style="rhombus;whiteSpace=wrap;html=1;" vertex="1" parent="WIyWlLk6GJQsqaUBKTNV-1">
          <mxGeometry x="-120" y="600" width="120" height="80" as="geometry" />
        </mxCell>
        <mxCell id="Vs3bbwnLYGWWkS4Y2I-G-138" style="edgeStyle=orthogonalEdgeStyle;rounded=0;jumpStyle=arc;orthogonalLoop=1;jettySize=auto;html=1;" edge="1" parent="WIyWlLk6GJQsqaUBKTNV-1" source="Vs3bbwnLYGWWkS4Y2I-G-136">
          <mxGeometry relative="1" as="geometry">
            <mxPoint x="80" y="640" as="targetPoint" />
            <Array as="points">
              <mxPoint x="60" y="740" />
              <mxPoint x="60" y="640" />
            </Array>
          </mxGeometry>
        </mxCell>
        <mxCell id="Vs3bbwnLYGWWkS4Y2I-G-136" value="apiFpStatus = open" style="rounded=0;whiteSpace=wrap;html=1;fontSize=12;glass=0;strokeWidth=1;shadow=0;align=center;" vertex="1" parent="WIyWlLk6GJQsqaUBKTNV-1">
          <mxGeometry x="-120" y="720" width="120" height="40" as="geometry" />
        </mxCell>
        <mxCell id="Vs3bbwnLYGWWkS4Y2I-G-142" style="edgeStyle=orthogonalEdgeStyle;rounded=0;jumpStyle=arc;orthogonalLoop=1;jettySize=auto;html=1;" edge="1" parent="WIyWlLk6GJQsqaUBKTNV-1" source="Vs3bbwnLYGWWkS4Y2I-G-140" target="Vs3bbwnLYGWWkS4Y2I-G-47">
          <mxGeometry relative="1" as="geometry" />
        </mxCell>
        <mxCell id="Vs3bbwnLYGWWkS4Y2I-G-140" value="apiTtScore - 0.01" style="rounded=0;whiteSpace=wrap;html=1;fontSize=12;glass=0;strokeWidth=1;shadow=0;" vertex="1" parent="WIyWlLk6GJQsqaUBKTNV-1">
          <mxGeometry x="560" y="620" width="120" height="40" as="geometry" />
        </mxCell>
      </root>
    </mxGraphModel>
  </diagram>
</mxfile>
